HIERARCHY
ROOT root
{
	OFFSET 0.000000 0.000000 0.000000
	CHANNELS 6 Xposition Yposition Zposition Zrotation Yrotation Xrotation
	JOINT lhip
	{
		OFFSET 0.058581 -0.082280 -0.017664
		CHANNELS 3 Zrotation Yrotation Xrotation
		JOINT lknee
		{
			OFFSET 0.043451 -0.386469 0.008037
			CHANNELS 3 Zrotation Yrotation Xrotation
			JOINT lankle
			{
				OFFSET -0.014790 -0.426874 -0.037428
				CHANNELS 3 Zrotation Yrotation Xrotation
				JOINT ltoe
				{
					OFFSET 0.041054 -0.060286 0.122042
					CHANNELS 3 Zrotation Yrotation Xrotation
					End Site
					{
						OFFSET 0.000000 0.000000 0.000000
					}
				}
			}
		}
	}
	JOINT rhip
	{
		OFFSET -0.060310 -0.090513 -0.013543
		CHANNELS 3 Zrotation Yrotation Xrotation
		JOINT rknee
		{
			OFFSET -0.043257 -0.383688 -0.004843
			CHANNELS 3 Zrotation Yrotation Xrotation
			JOINT rankle
			{
				OFFSET 0.019056 -0.420046 -0.034562
				CHANNELS 3 Zrotation Yrotation Xrotation
				JOINT rtoe
				{
					OFFSET -0.034840 -0.062106 0.130323
					CHANNELS 3 Zrotation Yrotation Xrotation
					End Site
					{
						OFFSET 0.000000 0.000000 0.000000
					}
				}
			}
		}
	}
	JOINT lowerback
	{
		OFFSET 0.004439 0.124404 -0.038385
		CHANNELS 3 Zrotation Yrotation Xrotation
		JOINT upperback
		{
			OFFSET 0.004488 0.137956 0.026820
			CHANNELS 3 Zrotation Yrotation Xrotation
			JOINT chest
			{
				OFFSET -0.002265 0.056032 0.002855
				CHANNELS 3 Zrotation Yrotation Xrotation
				JOINT lowerneck
				{
					OFFSET -0.013390 0.211636 -0.033468
					CHANNELS 3 Zrotation Yrotation Xrotation
					JOINT upperneck
					{
						OFFSET 0.010113 0.088937 0.050410
						CHANNELS 3 Zrotation Yrotation Xrotation
						End Site
						{
							OFFSET 0.000000 0.000000 0.000000
						}
					}
				}
				JOINT lclavicle
				{
					OFFSET 0.071702 0.114000 -0.018898
					CHANNELS 3 Zrotation Yrotation Xrotation
					JOINT lshoulder
					{
						OFFSET 0.122921 0.045205 -0.019046
						CHANNELS 3 Zrotation Yrotation Xrotation
						JOINT lelbow
						{
							OFFSET 0.255332 -0.015649 -0.022946
							CHANNELS 3 Zrotation Yrotation Xrotation
							JOINT lwrist
							{
								OFFSET 0.265709 0.012698 -0.007375
								CHANNELS 3 Zrotation Yrotation Xrotation
								End Site
								{
									OFFSET 0.000000 0.000000 0.000000
								}
							}
						}
					}
				}
				JOINT rclavicle
				{
					OFFSET -0.082954 0.112472 -0.023707
					CHANNELS 3 Zrotation Yrotation Xrotation
					JOINT rshoulder
					{
						OFFSET -0.113228 0.046853 -0.008472
						CHANNELS 3 Zrotation Yrotation Xrotation
						JOINT relbow
						{
							OFFSET -0.260127 -0.014369 -0.031269
							CHANNELS 3 Zrotation Yrotation Xrotation
							JOINT rwrist
							{
								OFFSET -0.269108 0.006794 -0.006027
								CHANNELS 3 Zrotation Yrotation Xrotation
								End Site
								{
									OFFSET 0.000000 0.000000 0.000000
								}
							}
						}
					}
				}
			}
		}
	}
}
MOTION
Frames: 5
Frame Time: 0.033333
-0.313810 2.977852 0.990210 -3.136016 1.090627 84.369582 4.711333 6.924401 13.151275 -3.383733 1.749210 -5.490454 3.421478 14.243578 -10.786168 0.000000 -0.000000 0.000000 -3.178145 -3.071354 0.165173 1.707484 -4.408031 17.431173 4.392142 -6.645234 -10.254154 0.000000 -0.000000 0.000000 0.533518 -1.806177 2.207999 0.617056 -2.279139 9.945209 -0.955627 -1.999829 -0.626025 4.575536 1.047965 -0.597530 1.762950 -0.888141 -1.333393 -30.570338 2.293190 2.059874 -57.970912 -3.810598 8.077881 13.883376 -32.389292 0.968652 -3.372375 -6.532019 2.893517 27.509224 2.946144 3.252270 58.714771 4.949171 11.478039 -13.635566 26.094444 -5.873267 3.252709 7.391709 -3.584338 
-0.313914 2.977696 0.990232 -3.222811 1.041089 84.374215 4.658503 6.929855 13.224841 -3.392124 1.651584 -5.609944 3.551327 14.427239 -10.698198 0.000000 -0.000000 0.000000 -3.208970 -2.922227 0.229136 1.818163 -4.068706 17.274469 4.809559 -7.077430 -10.295213 0.000000 -0.000000 0.000000 0.444677 -1.706463 2.064707 0.639489 -2.323308 10.072600 -0.928774 -1.996040 -0.644206 4.494230 0.946675 -0.602194 1.812558 -0.794396 -1.232582 -30.531230 2.319330 2.174689 -58.050670 -3.907156 8.253907 13.970031 -32.344531 0.992529 -3.238751 -6.446028 2.653630 27.418892 2.973981 3.316365 58.815861 4.940307 11.628157 -13.796132 26.128567 -5.914974 3.247260 7.346723 -3.718307 
-0.314096 2.977388 0.990331 -3.275919 1.020371 84.326593 4.669123 6.985272 13.359659 -3.418756 1.638350 -5.730643 3.555430 14.434726 -10.672367 0.000000 -0.000000 0.000000 -3.228070 -2.936961 0.304923 1.805863 -4.073683 17.194344 4.804803 -7.022616 -10.288915 0.000000 -0.000000 0.000000 0.393842 -1.677197 1.956081 0.635125 -2.299447 10.178323 -0.922013 -2.001550 -0.643115 4.543900 0.946016 -0.579647 1.806070 -0.832085 -1.149862 -30.507776 2.304827 2.173971 -58.062627 -3.944459 8.274340 13.918399 -32.184191 1.043805 -3.189726 -6.542734 2.668974 27.415049 2.968856 3.340280 58.833214 4.940718 11.642504 -13.809680 26.098376 -5.906451 3.207647 7.386102 -3.679022 
-0.314130 2.977569 0.990374 -3.284046 1.021592 84.316697 4.673412 6.987801 13.361434 -3.421175 1.639555 -5.736862 3.554894 14.434622 -10.666541 0.000000 -0.000000 0.000000 -3.225737 -2.935634 0.304740 1.807371 -4.076268 17.189009 4.805529 -7.018843 -10.285134 0.000000 -0.000000 0.000000 0.388164 -1.681393 1.950566 0.628463 -2.300741 10.169435 -0.926548 -2.006004 -0.647643 4.548027 0.933409 -0.557257 1.807779 -0.839739 -1.137522 -30.503096 2.303223 2.179860 -58.061023 -3.944413 8.278248 13.914103 -32.187316 1.046163 -3.186591 -6.547371 2.668449 27.399381 2.968259 3.345579 58.840055 4.930874 11.645337 -13.810026 26.088074 -5.902583 3.206026 7.384062 -3.688043 
-0.314148 2.977660 0.990390 -3.293862 1.022463 84.311237 4.676820 6.991538 13.365821 -3.423161 1.640763 -5.746446 3.554628 14.436300 -10.658965 0.000000 -0.000000 0.000000 -3.224243 -2.935644 0.306349 1.809102 -4.074783 17.181300 4.806138 -7.013367 -10.279796 0.000000 -0.000000 0.000000 0.387543 -1.684202 1.942370 0.623357 -2.301177 10.160697 -0.931136 -2.007076 -0.654926 4.545548 0.919618 -0.528418 1.809712 -0.842874 -1.126522 -30.495985 2.303577 2.187070 -58.054978 -3.936764 8.283546 13.909109 -32.190286 1.049752 -3.183339 -6.548804 2.668531 27.382271 2.969052 3.352722 58.844524 4.922210 11.648619 -13.806192 26.077013 -5.899022 3.203836 7.384297 -3.699244 
